<mxfile host="app.diagrams.net" modified="2023-12-05T12:22:51.329Z" agent="Mozilla/5.0 (Windows NT 10.0; Win64; x64) AppleWebKit/537.36 (KHTML, like Gecko) Chrome/119.0.0.0 Safari/537.36" etag="6pbellgZVu6P3pq8Gq5E" version="22.1.5" type="device">
  <diagram name="Page-1" id="j4G3jCTrOOou7mACB3Yl">
    <mxGraphModel dx="1567" dy="565" grid="1" gridSize="10" guides="1" tooltips="1" connect="1" arrows="1" fold="1" page="1" pageScale="1" pageWidth="850" pageHeight="1100" background="#ffffff" math="0" shadow="0">
      <root>
        <mxCell id="0" />
        <mxCell id="1" parent="0" />
        <mxCell id="iM74KqJYMNT5QxLCBDjQ-1" value="" style="ellipse;whiteSpace=wrap;html=1;" vertex="1" parent="1">
          <mxGeometry x="200" y="150" width="20" height="20" as="geometry" />
        </mxCell>
        <mxCell id="iM74KqJYMNT5QxLCBDjQ-3" value="" style="ellipse;whiteSpace=wrap;html=1;" vertex="1" parent="1">
          <mxGeometry x="110" y="200" width="20" height="20" as="geometry" />
        </mxCell>
        <mxCell id="iM74KqJYMNT5QxLCBDjQ-5" value="" style="ellipse;whiteSpace=wrap;html=1;" vertex="1" parent="1">
          <mxGeometry x="70" y="240" width="20" height="20" as="geometry" />
        </mxCell>
        <mxCell id="iM74KqJYMNT5QxLCBDjQ-7" value="" style="ellipse;whiteSpace=wrap;html=1;" vertex="1" parent="1">
          <mxGeometry x="150" y="240" width="20" height="20" as="geometry" />
        </mxCell>
        <mxCell id="iM74KqJYMNT5QxLCBDjQ-12" value="" style="ellipse;whiteSpace=wrap;html=1;" vertex="1" parent="1">
          <mxGeometry x="90" y="280" width="20" height="20" as="geometry" />
        </mxCell>
        <mxCell id="iM74KqJYMNT5QxLCBDjQ-13" value="" style="ellipse;whiteSpace=wrap;html=1;" vertex="1" parent="1">
          <mxGeometry x="40" y="280" width="20" height="20" as="geometry" />
        </mxCell>
        <mxCell id="iM74KqJYMNT5QxLCBDjQ-14" value="" style="ellipse;whiteSpace=wrap;html=1;" vertex="1" parent="1">
          <mxGeometry x="130" y="280" width="20" height="20" as="geometry" />
        </mxCell>
        <mxCell id="iM74KqJYMNT5QxLCBDjQ-15" value="" style="ellipse;whiteSpace=wrap;html=1;" vertex="1" parent="1">
          <mxGeometry x="170" y="280" width="20" height="20" as="geometry" />
        </mxCell>
        <mxCell id="iM74KqJYMNT5QxLCBDjQ-21" value="" style="ellipse;whiteSpace=wrap;html=1;" vertex="1" parent="1">
          <mxGeometry x="310" y="200" width="20" height="20" as="geometry" />
        </mxCell>
        <mxCell id="iM74KqJYMNT5QxLCBDjQ-50" value="&lt;font style=&quot;font-size: 14px;&quot;&gt;&lt;b&gt;InstÃ¢ncia&lt;/b&gt;&lt;/font&gt;" style="text;html=1;align=center;verticalAlign=middle;resizable=0;points=[];autosize=1;strokeColor=none;fillColor=none;" vertex="1" parent="1">
          <mxGeometry x="375" y="100" width="80" height="30" as="geometry" />
        </mxCell>
        <mxCell id="iM74KqJYMNT5QxLCBDjQ-51" value="" style="endArrow=none;dashed=1;html=1;dashPattern=1 3;strokeWidth=2;rounded=0;" edge="1" parent="1" target="iM74KqJYMNT5QxLCBDjQ-50">
          <mxGeometry width="50" height="50" relative="1" as="geometry">
            <mxPoint x="220" y="150" as="sourcePoint" />
            <mxPoint x="350" y="110" as="targetPoint" />
          </mxGeometry>
        </mxCell>
        <mxCell id="iM74KqJYMNT5QxLCBDjQ-52" value="" style="endArrow=none;dashed=1;html=1;dashPattern=1 3;strokeWidth=2;rounded=0;entryX=0;entryY=1;entryDx=0;entryDy=0;exitX=1;exitY=0;exitDx=0;exitDy=0;" edge="1" parent="1" source="iM74KqJYMNT5QxLCBDjQ-3" target="iM74KqJYMNT5QxLCBDjQ-1">
          <mxGeometry width="50" height="50" relative="1" as="geometry">
            <mxPoint x="230" y="160" as="sourcePoint" />
            <mxPoint x="404" y="100" as="targetPoint" />
          </mxGeometry>
        </mxCell>
        <mxCell id="iM74KqJYMNT5QxLCBDjQ-53" value="" style="endArrow=none;dashed=1;html=1;dashPattern=1 3;strokeWidth=2;rounded=0;entryX=0;entryY=1;entryDx=0;entryDy=0;exitX=1;exitY=0;exitDx=0;exitDy=0;" edge="1" parent="1" source="iM74KqJYMNT5QxLCBDjQ-5" target="iM74KqJYMNT5QxLCBDjQ-3">
          <mxGeometry width="50" height="50" relative="1" as="geometry">
            <mxPoint x="137" y="213" as="sourcePoint" />
            <mxPoint x="213" y="177" as="targetPoint" />
          </mxGeometry>
        </mxCell>
        <mxCell id="iM74KqJYMNT5QxLCBDjQ-54" value="" style="endArrow=none;dashed=1;html=1;dashPattern=1 3;strokeWidth=2;rounded=0;entryX=0;entryY=1;entryDx=0;entryDy=0;exitX=1;exitY=0;exitDx=0;exitDy=0;" edge="1" parent="1" source="iM74KqJYMNT5QxLCBDjQ-13" target="iM74KqJYMNT5QxLCBDjQ-5">
          <mxGeometry width="50" height="50" relative="1" as="geometry">
            <mxPoint x="97" y="253" as="sourcePoint" />
            <mxPoint x="123" y="227" as="targetPoint" />
          </mxGeometry>
        </mxCell>
        <mxCell id="iM74KqJYMNT5QxLCBDjQ-55" value="" style="endArrow=none;dashed=1;html=1;dashPattern=1 3;strokeWidth=2;rounded=0;entryX=1;entryY=1;entryDx=0;entryDy=0;exitX=1;exitY=0;exitDx=0;exitDy=0;" edge="1" parent="1" source="iM74KqJYMNT5QxLCBDjQ-12" target="iM74KqJYMNT5QxLCBDjQ-5">
          <mxGeometry width="50" height="50" relative="1" as="geometry">
            <mxPoint x="107" y="263" as="sourcePoint" />
            <mxPoint x="133" y="237" as="targetPoint" />
          </mxGeometry>
        </mxCell>
        <mxCell id="iM74KqJYMNT5QxLCBDjQ-57" value="" style="endArrow=none;dashed=1;html=1;dashPattern=1 3;strokeWidth=2;rounded=0;entryX=1;entryY=1;entryDx=0;entryDy=0;exitX=0;exitY=0;exitDx=0;exitDy=0;" edge="1" parent="1" source="iM74KqJYMNT5QxLCBDjQ-7" target="iM74KqJYMNT5QxLCBDjQ-3">
          <mxGeometry width="50" height="50" relative="1" as="geometry">
            <mxPoint x="97" y="253" as="sourcePoint" />
            <mxPoint x="123" y="227" as="targetPoint" />
          </mxGeometry>
        </mxCell>
        <mxCell id="iM74KqJYMNT5QxLCBDjQ-58" value="" style="endArrow=none;dashed=1;html=1;dashPattern=1 3;strokeWidth=2;rounded=0;entryX=0;entryY=1;entryDx=0;entryDy=0;exitX=0.5;exitY=0;exitDx=0;exitDy=0;" edge="1" parent="1" source="iM74KqJYMNT5QxLCBDjQ-14" target="iM74KqJYMNT5QxLCBDjQ-7">
          <mxGeometry width="50" height="50" relative="1" as="geometry">
            <mxPoint x="67" y="293" as="sourcePoint" />
            <mxPoint x="83" y="267" as="targetPoint" />
          </mxGeometry>
        </mxCell>
        <mxCell id="iM74KqJYMNT5QxLCBDjQ-59" value="" style="endArrow=none;dashed=1;html=1;dashPattern=1 3;strokeWidth=2;rounded=0;entryX=1;entryY=1;entryDx=0;entryDy=0;exitX=0.5;exitY=0;exitDx=0;exitDy=0;" edge="1" parent="1" source="iM74KqJYMNT5QxLCBDjQ-15" target="iM74KqJYMNT5QxLCBDjQ-7">
          <mxGeometry width="50" height="50" relative="1" as="geometry">
            <mxPoint x="117" y="293" as="sourcePoint" />
            <mxPoint x="97" y="267" as="targetPoint" />
          </mxGeometry>
        </mxCell>
        <mxCell id="iM74KqJYMNT5QxLCBDjQ-60" value="" style="endArrow=none;dashed=1;html=1;dashPattern=1 3;strokeWidth=2;rounded=0;entryX=1;entryY=1;entryDx=0;entryDy=0;exitX=0;exitY=0;exitDx=0;exitDy=0;" edge="1" parent="1" source="iM74KqJYMNT5QxLCBDjQ-21" target="iM74KqJYMNT5QxLCBDjQ-1">
          <mxGeometry width="50" height="50" relative="1" as="geometry">
            <mxPoint x="300" y="200" as="sourcePoint" />
            <mxPoint x="137" y="227" as="targetPoint" />
          </mxGeometry>
        </mxCell>
        <mxCell id="iM74KqJYMNT5QxLCBDjQ-105" value="" style="ellipse;whiteSpace=wrap;html=1;" vertex="1" parent="1">
          <mxGeometry x="275" y="240" width="20" height="20" as="geometry" />
        </mxCell>
        <mxCell id="iM74KqJYMNT5QxLCBDjQ-106" value="" style="ellipse;whiteSpace=wrap;html=1;" vertex="1" parent="1">
          <mxGeometry x="355" y="240" width="20" height="20" as="geometry" />
        </mxCell>
        <mxCell id="iM74KqJYMNT5QxLCBDjQ-107" value="" style="ellipse;whiteSpace=wrap;html=1;" vertex="1" parent="1">
          <mxGeometry x="295" y="280" width="20" height="20" as="geometry" />
        </mxCell>
        <mxCell id="iM74KqJYMNT5QxLCBDjQ-108" value="" style="ellipse;whiteSpace=wrap;html=1;" vertex="1" parent="1">
          <mxGeometry x="245" y="280" width="20" height="20" as="geometry" />
        </mxCell>
        <mxCell id="iM74KqJYMNT5QxLCBDjQ-109" value="" style="ellipse;whiteSpace=wrap;html=1;" vertex="1" parent="1">
          <mxGeometry x="335" y="280" width="20" height="20" as="geometry" />
        </mxCell>
        <mxCell id="iM74KqJYMNT5QxLCBDjQ-110" value="" style="ellipse;whiteSpace=wrap;html=1;" vertex="1" parent="1">
          <mxGeometry x="375" y="280" width="20" height="20" as="geometry" />
        </mxCell>
        <mxCell id="iM74KqJYMNT5QxLCBDjQ-111" value="" style="endArrow=none;dashed=1;html=1;dashPattern=1 3;strokeWidth=2;rounded=0;entryX=0;entryY=1;entryDx=0;entryDy=0;exitX=0.85;exitY=-0.15;exitDx=0;exitDy=0;exitPerimeter=0;" edge="1" parent="1" source="iM74KqJYMNT5QxLCBDjQ-105" target="iM74KqJYMNT5QxLCBDjQ-21">
          <mxGeometry width="50" height="50" relative="1" as="geometry">
            <mxPoint x="97" y="253" as="sourcePoint" />
            <mxPoint x="123" y="227" as="targetPoint" />
          </mxGeometry>
        </mxCell>
        <mxCell id="iM74KqJYMNT5QxLCBDjQ-112" value="" style="endArrow=none;dashed=1;html=1;dashPattern=1 3;strokeWidth=2;rounded=0;entryX=1;entryY=1;entryDx=0;entryDy=0;exitX=0;exitY=0;exitDx=0;exitDy=0;" edge="1" parent="1" source="iM74KqJYMNT5QxLCBDjQ-106" target="iM74KqJYMNT5QxLCBDjQ-21">
          <mxGeometry width="50" height="50" relative="1" as="geometry">
            <mxPoint x="163" y="253" as="sourcePoint" />
            <mxPoint x="137" y="227" as="targetPoint" />
          </mxGeometry>
        </mxCell>
        <mxCell id="iM74KqJYMNT5QxLCBDjQ-113" value="" style="endArrow=none;dashed=1;html=1;dashPattern=1 3;strokeWidth=2;rounded=0;entryX=0;entryY=1;entryDx=0;entryDy=0;exitX=0.5;exitY=0;exitDx=0;exitDy=0;" edge="1" parent="1" source="iM74KqJYMNT5QxLCBDjQ-108" target="iM74KqJYMNT5QxLCBDjQ-105">
          <mxGeometry width="50" height="50" relative="1" as="geometry">
            <mxPoint x="150" y="290" as="sourcePoint" />
            <mxPoint x="163" y="267" as="targetPoint" />
          </mxGeometry>
        </mxCell>
        <mxCell id="iM74KqJYMNT5QxLCBDjQ-114" value="" style="endArrow=none;dashed=1;html=1;dashPattern=1 3;strokeWidth=2;rounded=0;entryX=1;entryY=1;entryDx=0;entryDy=0;exitX=0.5;exitY=0;exitDx=0;exitDy=0;" edge="1" parent="1" source="iM74KqJYMNT5QxLCBDjQ-107" target="iM74KqJYMNT5QxLCBDjQ-105">
          <mxGeometry width="50" height="50" relative="1" as="geometry">
            <mxPoint x="190" y="290" as="sourcePoint" />
            <mxPoint x="177" y="267" as="targetPoint" />
          </mxGeometry>
        </mxCell>
        <mxCell id="iM74KqJYMNT5QxLCBDjQ-115" value="" style="endArrow=none;dashed=1;html=1;dashPattern=1 3;strokeWidth=2;rounded=0;entryX=0;entryY=1;entryDx=0;entryDy=0;exitX=0.5;exitY=0;exitDx=0;exitDy=0;" edge="1" parent="1" source="iM74KqJYMNT5QxLCBDjQ-109" target="iM74KqJYMNT5QxLCBDjQ-106">
          <mxGeometry width="50" height="50" relative="1" as="geometry">
            <mxPoint x="150" y="290" as="sourcePoint" />
            <mxPoint x="163" y="267" as="targetPoint" />
          </mxGeometry>
        </mxCell>
        <mxCell id="iM74KqJYMNT5QxLCBDjQ-116" value="" style="endArrow=none;dashed=1;html=1;dashPattern=1 3;strokeWidth=2;rounded=0;entryX=1;entryY=1;entryDx=0;entryDy=0;exitX=0.5;exitY=0;exitDx=0;exitDy=0;" edge="1" parent="1" source="iM74KqJYMNT5QxLCBDjQ-110" target="iM74KqJYMNT5QxLCBDjQ-106">
          <mxGeometry width="50" height="50" relative="1" as="geometry">
            <mxPoint x="315" y="290" as="sourcePoint" />
            <mxPoint x="302" y="267" as="targetPoint" />
          </mxGeometry>
        </mxCell>
        <mxCell id="iM74KqJYMNT5QxLCBDjQ-146" value="" style="ellipse;whiteSpace=wrap;html=1;" vertex="1" parent="1">
          <mxGeometry x="585" y="150" width="20" height="20" as="geometry" />
        </mxCell>
        <mxCell id="iM74KqJYMNT5QxLCBDjQ-147" value="" style="ellipse;whiteSpace=wrap;html=1;" vertex="1" parent="1">
          <mxGeometry x="495" y="200" width="20" height="20" as="geometry" />
        </mxCell>
        <mxCell id="iM74KqJYMNT5QxLCBDjQ-148" value="" style="ellipse;whiteSpace=wrap;html=1;" vertex="1" parent="1">
          <mxGeometry x="455" y="240" width="20" height="20" as="geometry" />
        </mxCell>
        <mxCell id="iM74KqJYMNT5QxLCBDjQ-149" value="" style="ellipse;whiteSpace=wrap;html=1;" vertex="1" parent="1">
          <mxGeometry x="535" y="240" width="20" height="20" as="geometry" />
        </mxCell>
        <mxCell id="iM74KqJYMNT5QxLCBDjQ-150" value="" style="ellipse;whiteSpace=wrap;html=1;" vertex="1" parent="1">
          <mxGeometry x="475" y="280" width="20" height="20" as="geometry" />
        </mxCell>
        <mxCell id="iM74KqJYMNT5QxLCBDjQ-151" value="" style="ellipse;whiteSpace=wrap;html=1;" vertex="1" parent="1">
          <mxGeometry x="425" y="280" width="20" height="20" as="geometry" />
        </mxCell>
        <mxCell id="iM74KqJYMNT5QxLCBDjQ-152" value="" style="ellipse;whiteSpace=wrap;html=1;" vertex="1" parent="1">
          <mxGeometry x="515" y="280" width="20" height="20" as="geometry" />
        </mxCell>
        <mxCell id="iM74KqJYMNT5QxLCBDjQ-153" value="" style="ellipse;whiteSpace=wrap;html=1;" vertex="1" parent="1">
          <mxGeometry x="555" y="280" width="20" height="20" as="geometry" />
        </mxCell>
        <mxCell id="iM74KqJYMNT5QxLCBDjQ-154" value="" style="ellipse;whiteSpace=wrap;html=1;" vertex="1" parent="1">
          <mxGeometry x="695" y="200" width="20" height="20" as="geometry" />
        </mxCell>
        <mxCell id="iM74KqJYMNT5QxLCBDjQ-155" value="" style="endArrow=none;dashed=1;html=1;dashPattern=1 3;strokeWidth=2;rounded=0;entryX=0;entryY=1;entryDx=0;entryDy=0;exitX=1;exitY=0;exitDx=0;exitDy=0;" edge="1" parent="1" source="iM74KqJYMNT5QxLCBDjQ-147" target="iM74KqJYMNT5QxLCBDjQ-146">
          <mxGeometry width="50" height="50" relative="1" as="geometry">
            <mxPoint x="615" y="160" as="sourcePoint" />
            <mxPoint x="789" y="100" as="targetPoint" />
          </mxGeometry>
        </mxCell>
        <mxCell id="iM74KqJYMNT5QxLCBDjQ-156" value="" style="endArrow=none;dashed=1;html=1;dashPattern=1 3;strokeWidth=2;rounded=0;entryX=0;entryY=1;entryDx=0;entryDy=0;exitX=1;exitY=0;exitDx=0;exitDy=0;" edge="1" parent="1" source="iM74KqJYMNT5QxLCBDjQ-148" target="iM74KqJYMNT5QxLCBDjQ-147">
          <mxGeometry width="50" height="50" relative="1" as="geometry">
            <mxPoint x="522" y="213" as="sourcePoint" />
            <mxPoint x="598" y="177" as="targetPoint" />
          </mxGeometry>
        </mxCell>
        <mxCell id="iM74KqJYMNT5QxLCBDjQ-157" value="" style="endArrow=none;dashed=1;html=1;dashPattern=1 3;strokeWidth=2;rounded=0;entryX=0;entryY=1;entryDx=0;entryDy=0;exitX=1;exitY=0;exitDx=0;exitDy=0;" edge="1" parent="1" source="iM74KqJYMNT5QxLCBDjQ-151" target="iM74KqJYMNT5QxLCBDjQ-148">
          <mxGeometry width="50" height="50" relative="1" as="geometry">
            <mxPoint x="482" y="253" as="sourcePoint" />
            <mxPoint x="508" y="227" as="targetPoint" />
          </mxGeometry>
        </mxCell>
        <mxCell id="iM74KqJYMNT5QxLCBDjQ-158" value="" style="endArrow=none;dashed=1;html=1;dashPattern=1 3;strokeWidth=2;rounded=0;entryX=1;entryY=1;entryDx=0;entryDy=0;exitX=1;exitY=0;exitDx=0;exitDy=0;" edge="1" parent="1" source="iM74KqJYMNT5QxLCBDjQ-150" target="iM74KqJYMNT5QxLCBDjQ-148">
          <mxGeometry width="50" height="50" relative="1" as="geometry">
            <mxPoint x="492" y="263" as="sourcePoint" />
            <mxPoint x="518" y="237" as="targetPoint" />
          </mxGeometry>
        </mxCell>
        <mxCell id="iM74KqJYMNT5QxLCBDjQ-159" value="" style="endArrow=none;dashed=1;html=1;dashPattern=1 3;strokeWidth=2;rounded=0;entryX=1;entryY=1;entryDx=0;entryDy=0;exitX=0;exitY=0;exitDx=0;exitDy=0;" edge="1" parent="1" source="iM74KqJYMNT5QxLCBDjQ-149" target="iM74KqJYMNT5QxLCBDjQ-147">
          <mxGeometry width="50" height="50" relative="1" as="geometry">
            <mxPoint x="482" y="253" as="sourcePoint" />
            <mxPoint x="508" y="227" as="targetPoint" />
          </mxGeometry>
        </mxCell>
        <mxCell id="iM74KqJYMNT5QxLCBDjQ-160" value="" style="endArrow=none;dashed=1;html=1;dashPattern=1 3;strokeWidth=2;rounded=0;entryX=0;entryY=1;entryDx=0;entryDy=0;exitX=0.5;exitY=0;exitDx=0;exitDy=0;" edge="1" parent="1" source="iM74KqJYMNT5QxLCBDjQ-152" target="iM74KqJYMNT5QxLCBDjQ-149">
          <mxGeometry width="50" height="50" relative="1" as="geometry">
            <mxPoint x="452" y="293" as="sourcePoint" />
            <mxPoint x="468" y="267" as="targetPoint" />
          </mxGeometry>
        </mxCell>
        <mxCell id="iM74KqJYMNT5QxLCBDjQ-161" value="" style="endArrow=none;dashed=1;html=1;dashPattern=1 3;strokeWidth=2;rounded=0;entryX=1;entryY=1;entryDx=0;entryDy=0;exitX=0.5;exitY=0;exitDx=0;exitDy=0;" edge="1" parent="1" source="iM74KqJYMNT5QxLCBDjQ-153" target="iM74KqJYMNT5QxLCBDjQ-149">
          <mxGeometry width="50" height="50" relative="1" as="geometry">
            <mxPoint x="502" y="293" as="sourcePoint" />
            <mxPoint x="482" y="267" as="targetPoint" />
          </mxGeometry>
        </mxCell>
        <mxCell id="iM74KqJYMNT5QxLCBDjQ-162" value="" style="endArrow=none;dashed=1;html=1;dashPattern=1 3;strokeWidth=2;rounded=0;entryX=1;entryY=1;entryDx=0;entryDy=0;exitX=0;exitY=0;exitDx=0;exitDy=0;" edge="1" parent="1" source="iM74KqJYMNT5QxLCBDjQ-154" target="iM74KqJYMNT5QxLCBDjQ-146">
          <mxGeometry width="50" height="50" relative="1" as="geometry">
            <mxPoint x="685" y="200" as="sourcePoint" />
            <mxPoint x="522" y="227" as="targetPoint" />
          </mxGeometry>
        </mxCell>
        <mxCell id="iM74KqJYMNT5QxLCBDjQ-163" value="" style="ellipse;whiteSpace=wrap;html=1;" vertex="1" parent="1">
          <mxGeometry x="660" y="240" width="20" height="20" as="geometry" />
        </mxCell>
        <mxCell id="iM74KqJYMNT5QxLCBDjQ-164" value="" style="ellipse;whiteSpace=wrap;html=1;" vertex="1" parent="1">
          <mxGeometry x="740" y="240" width="20" height="20" as="geometry" />
        </mxCell>
        <mxCell id="iM74KqJYMNT5QxLCBDjQ-165" value="" style="ellipse;whiteSpace=wrap;html=1;" vertex="1" parent="1">
          <mxGeometry x="680" y="280" width="20" height="20" as="geometry" />
        </mxCell>
        <mxCell id="iM74KqJYMNT5QxLCBDjQ-166" value="" style="ellipse;whiteSpace=wrap;html=1;" vertex="1" parent="1">
          <mxGeometry x="630" y="280" width="20" height="20" as="geometry" />
        </mxCell>
        <mxCell id="iM74KqJYMNT5QxLCBDjQ-167" value="" style="ellipse;whiteSpace=wrap;html=1;" vertex="1" parent="1">
          <mxGeometry x="720" y="280" width="20" height="20" as="geometry" />
        </mxCell>
        <mxCell id="iM74KqJYMNT5QxLCBDjQ-168" value="" style="ellipse;whiteSpace=wrap;html=1;" vertex="1" parent="1">
          <mxGeometry x="760" y="280" width="20" height="20" as="geometry" />
        </mxCell>
        <mxCell id="iM74KqJYMNT5QxLCBDjQ-169" value="" style="endArrow=none;dashed=1;html=1;dashPattern=1 3;strokeWidth=2;rounded=0;entryX=0;entryY=1;entryDx=0;entryDy=0;exitX=0.85;exitY=-0.15;exitDx=0;exitDy=0;exitPerimeter=0;" edge="1" parent="1" source="iM74KqJYMNT5QxLCBDjQ-163" target="iM74KqJYMNT5QxLCBDjQ-154">
          <mxGeometry width="50" height="50" relative="1" as="geometry">
            <mxPoint x="482" y="253" as="sourcePoint" />
            <mxPoint x="508" y="227" as="targetPoint" />
          </mxGeometry>
        </mxCell>
        <mxCell id="iM74KqJYMNT5QxLCBDjQ-170" value="" style="endArrow=none;dashed=1;html=1;dashPattern=1 3;strokeWidth=2;rounded=0;entryX=1;entryY=1;entryDx=0;entryDy=0;exitX=0;exitY=0;exitDx=0;exitDy=0;" edge="1" parent="1" source="iM74KqJYMNT5QxLCBDjQ-164" target="iM74KqJYMNT5QxLCBDjQ-154">
          <mxGeometry width="50" height="50" relative="1" as="geometry">
            <mxPoint x="548" y="253" as="sourcePoint" />
            <mxPoint x="522" y="227" as="targetPoint" />
          </mxGeometry>
        </mxCell>
        <mxCell id="iM74KqJYMNT5QxLCBDjQ-171" value="" style="endArrow=none;dashed=1;html=1;dashPattern=1 3;strokeWidth=2;rounded=0;entryX=0;entryY=1;entryDx=0;entryDy=0;exitX=0.5;exitY=0;exitDx=0;exitDy=0;" edge="1" parent="1" source="iM74KqJYMNT5QxLCBDjQ-166" target="iM74KqJYMNT5QxLCBDjQ-163">
          <mxGeometry width="50" height="50" relative="1" as="geometry">
            <mxPoint x="535" y="290" as="sourcePoint" />
            <mxPoint x="548" y="267" as="targetPoint" />
          </mxGeometry>
        </mxCell>
        <mxCell id="iM74KqJYMNT5QxLCBDjQ-172" value="" style="endArrow=none;dashed=1;html=1;dashPattern=1 3;strokeWidth=2;rounded=0;entryX=1;entryY=1;entryDx=0;entryDy=0;exitX=0.5;exitY=0;exitDx=0;exitDy=0;" edge="1" parent="1" source="iM74KqJYMNT5QxLCBDjQ-165" target="iM74KqJYMNT5QxLCBDjQ-163">
          <mxGeometry width="50" height="50" relative="1" as="geometry">
            <mxPoint x="575" y="290" as="sourcePoint" />
            <mxPoint x="562" y="267" as="targetPoint" />
          </mxGeometry>
        </mxCell>
        <mxCell id="iM74KqJYMNT5QxLCBDjQ-173" value="" style="endArrow=none;dashed=1;html=1;dashPattern=1 3;strokeWidth=2;rounded=0;entryX=0;entryY=1;entryDx=0;entryDy=0;exitX=0.5;exitY=0;exitDx=0;exitDy=0;" edge="1" parent="1" source="iM74KqJYMNT5QxLCBDjQ-167" target="iM74KqJYMNT5QxLCBDjQ-164">
          <mxGeometry width="50" height="50" relative="1" as="geometry">
            <mxPoint x="535" y="290" as="sourcePoint" />
            <mxPoint x="548" y="267" as="targetPoint" />
          </mxGeometry>
        </mxCell>
        <mxCell id="iM74KqJYMNT5QxLCBDjQ-174" value="" style="endArrow=none;dashed=1;html=1;dashPattern=1 3;strokeWidth=2;rounded=0;entryX=1;entryY=1;entryDx=0;entryDy=0;exitX=0.5;exitY=0;exitDx=0;exitDy=0;" edge="1" parent="1" source="iM74KqJYMNT5QxLCBDjQ-168" target="iM74KqJYMNT5QxLCBDjQ-164">
          <mxGeometry width="50" height="50" relative="1" as="geometry">
            <mxPoint x="700" y="290" as="sourcePoint" />
            <mxPoint x="687" y="267" as="targetPoint" />
          </mxGeometry>
        </mxCell>
        <mxCell id="iM74KqJYMNT5QxLCBDjQ-175" value="" style="endArrow=none;dashed=1;html=1;dashPattern=1 3;strokeWidth=2;rounded=0;exitX=0;exitY=0;exitDx=0;exitDy=0;" edge="1" parent="1" source="iM74KqJYMNT5QxLCBDjQ-146" target="iM74KqJYMNT5QxLCBDjQ-50">
          <mxGeometry width="50" height="50" relative="1" as="geometry">
            <mxPoint x="400" y="340" as="sourcePoint" />
            <mxPoint x="450" y="290" as="targetPoint" />
          </mxGeometry>
        </mxCell>
        <mxCell id="iM74KqJYMNT5QxLCBDjQ-176" value="&lt;b style=&quot;border-color: var(--border-color); font-size: 14px;&quot;&gt;Arvore 1&lt;br style=&quot;border-color: var(--border-color);&quot;&gt;prediÃ§Ã£o&lt;/b&gt;" style="text;html=1;align=center;verticalAlign=middle;resizable=0;points=[];autosize=1;strokeColor=none;fillColor=none;" vertex="1" parent="1">
          <mxGeometry x="165" y="330" width="80" height="50" as="geometry" />
        </mxCell>
        <mxCell id="iM74KqJYMNT5QxLCBDjQ-179" value="&lt;b style=&quot;border-color: var(--border-color); font-size: 14px;&quot;&gt;Arvore 1&lt;br style=&quot;border-color: var(--border-color);&quot;&gt;prediÃ§Ã£o&lt;/b&gt;" style="text;html=1;align=center;verticalAlign=middle;resizable=0;points=[];autosize=1;strokeColor=none;fillColor=none;" vertex="1" parent="1">
          <mxGeometry x="600" y="340" width="80" height="50" as="geometry" />
        </mxCell>
        <mxCell id="iM74KqJYMNT5QxLCBDjQ-181" value="&lt;font style=&quot;font-size: 14px;&quot;&gt;&lt;b&gt;Voto MajoritÃ¡rio&lt;br&gt;&lt;/b&gt;&lt;/font&gt;&lt;font style=&quot;font-size: 14px;&quot;&gt;&lt;b&gt;&amp;nbsp;PrediÃ§Ã£o ProbabilÃ­stica&lt;/b&gt;&lt;/font&gt;" style="text;html=1;align=center;verticalAlign=middle;resizable=0;points=[];autosize=1;strokeColor=none;fillColor=none;" vertex="1" parent="1">
          <mxGeometry x="330" y="350" width="180" height="50" as="geometry" />
        </mxCell>
        <mxCell id="iM74KqJYMNT5QxLCBDjQ-182" value="&lt;font style=&quot;font-size: 18px;&quot;&gt;...&lt;/font&gt;" style="text;html=1;align=center;verticalAlign=middle;resizable=0;points=[];autosize=1;strokeColor=none;fillColor=none;" vertex="1" parent="1">
          <mxGeometry x="395" y="190" width="40" height="40" as="geometry" />
        </mxCell>
        <mxCell id="iM74KqJYMNT5QxLCBDjQ-184" value="" style="endArrow=classic;html=1;rounded=0;" edge="1" parent="1">
          <mxGeometry width="50" height="50" relative="1" as="geometry">
            <mxPoint x="240" y="160" as="sourcePoint" />
            <mxPoint x="300" y="190" as="targetPoint" />
          </mxGeometry>
        </mxCell>
        <mxCell id="iM74KqJYMNT5QxLCBDjQ-188" value="" style="endArrow=classic;html=1;rounded=0;" edge="1" parent="1">
          <mxGeometry width="50" height="50" relative="1" as="geometry">
            <mxPoint x="340" y="210" as="sourcePoint" />
            <mxPoint x="360" y="230" as="targetPoint" />
          </mxGeometry>
        </mxCell>
        <mxCell id="iM74KqJYMNT5QxLCBDjQ-189" value="" style="endArrow=classic;html=1;rounded=0;" edge="1" parent="1">
          <mxGeometry width="50" height="50" relative="1" as="geometry">
            <mxPoint x="350" y="250" as="sourcePoint" />
            <mxPoint x="340" y="270" as="targetPoint" />
          </mxGeometry>
        </mxCell>
        <mxCell id="iM74KqJYMNT5QxLCBDjQ-190" value="" style="endArrow=classic;html=1;rounded=0;" edge="1" parent="1">
          <mxGeometry width="50" height="50" relative="1" as="geometry">
            <mxPoint x="580" y="160" as="sourcePoint" />
            <mxPoint x="510" y="190" as="targetPoint" />
          </mxGeometry>
        </mxCell>
        <mxCell id="iM74KqJYMNT5QxLCBDjQ-192" value="" style="endArrow=classic;html=1;rounded=0;" edge="1" parent="1">
          <mxGeometry width="50" height="50" relative="1" as="geometry">
            <mxPoint x="520" y="210" as="sourcePoint" />
            <mxPoint x="540" y="230" as="targetPoint" />
            <Array as="points">
              <mxPoint x="540" y="230" />
            </Array>
          </mxGeometry>
        </mxCell>
        <mxCell id="iM74KqJYMNT5QxLCBDjQ-193" value="" style="endArrow=classic;html=1;rounded=0;" edge="1" parent="1">
          <mxGeometry width="50" height="50" relative="1" as="geometry">
            <mxPoint x="530" y="250" as="sourcePoint" />
            <mxPoint x="520" y="270" as="targetPoint" />
            <Array as="points">
              <mxPoint x="520" y="270" />
            </Array>
          </mxGeometry>
        </mxCell>
        <mxCell id="iM74KqJYMNT5QxLCBDjQ-196" value="&lt;b&gt;Resultado Final&lt;/b&gt;" style="text;html=1;align=center;verticalAlign=middle;resizable=0;points=[];autosize=1;strokeColor=none;fillColor=none;" vertex="1" parent="1">
          <mxGeometry x="365" y="410" width="110" height="30" as="geometry" />
        </mxCell>
        <mxCell id="iM74KqJYMNT5QxLCBDjQ-197" value="" style="endArrow=none;dashed=1;html=1;rounded=0;exitX=0.814;exitY=1.07;exitDx=0;exitDy=0;exitPerimeter=0;entryX=0.004;entryY=1.042;entryDx=0;entryDy=0;entryPerimeter=0;" edge="1" parent="1" source="iM74KqJYMNT5QxLCBDjQ-176" target="iM74KqJYMNT5QxLCBDjQ-181">
          <mxGeometry width="50" height="50" relative="1" as="geometry">
            <mxPoint x="390" y="360" as="sourcePoint" />
            <mxPoint x="440" y="310" as="targetPoint" />
          </mxGeometry>
        </mxCell>
        <mxCell id="iM74KqJYMNT5QxLCBDjQ-198" value="" style="endArrow=none;dashed=1;html=1;rounded=0;exitX=1.012;exitY=1.001;exitDx=0;exitDy=0;exitPerimeter=0;entryX=0.023;entryY=0.511;entryDx=0;entryDy=0;entryPerimeter=0;" edge="1" parent="1" source="iM74KqJYMNT5QxLCBDjQ-181" target="iM74KqJYMNT5QxLCBDjQ-179">
          <mxGeometry width="50" height="50" relative="1" as="geometry">
            <mxPoint x="390" y="360" as="sourcePoint" />
            <mxPoint x="440" y="310" as="targetPoint" />
          </mxGeometry>
        </mxCell>
      </root>
    </mxGraphModel>
  </diagram>
</mxfile>
